G75*
%MOIN*%
%OFA0B0*%
%FSLAX25Y25*%
%IPPOS*%
%LPD*%
%AMOC8*
5,1,8,0,0,1.08239X$1,22.5*
%
%ADD10R,0.07400X0.07400*%
%ADD11C,0.07400*%
%ADD12R,0.06400X0.06400*%
%ADD13OC8,0.07400*%
%ADD14C,0.01600*%
%ADD15C,0.04362*%
%ADD16C,0.01000*%
D10*
X0009300Y0208233D03*
D11*
X0009300Y0198233D03*
X0009300Y0188233D03*
X0009300Y0178233D03*
D12*
X0089300Y0178233D03*
X0089300Y0168233D03*
X0089300Y0198233D03*
X0089300Y0208233D03*
D13*
X0069300Y0178233D03*
X0059300Y0178233D03*
X0059300Y0168233D03*
X0069300Y0168233D03*
D14*
X0003400Y0159833D02*
X0003400Y0216633D01*
X0107700Y0216633D01*
X0107700Y0159833D01*
X0003400Y0159833D01*
X0003400Y0161430D02*
X0107700Y0161430D01*
X0107700Y0163029D02*
X0071591Y0163029D01*
X0071495Y0162933D02*
X0074600Y0166038D01*
X0074600Y0170429D01*
X0071795Y0173233D01*
X0074600Y0176038D01*
X0074600Y0180429D01*
X0071495Y0183533D01*
X0067105Y0183533D01*
X0064300Y0180729D01*
X0061495Y0183533D01*
X0057105Y0183533D01*
X0054000Y0180429D01*
X0054000Y0176038D01*
X0056805Y0173233D01*
X0054000Y0170429D01*
X0054000Y0166038D01*
X0057105Y0162933D01*
X0061495Y0162933D01*
X0064300Y0165738D01*
X0067105Y0162933D01*
X0071495Y0162933D01*
X0073189Y0164627D02*
X0084500Y0164627D01*
X0084500Y0164371D02*
X0085437Y0163433D01*
X0093163Y0163433D01*
X0094100Y0164371D01*
X0094100Y0172096D01*
X0093163Y0173033D01*
X0085437Y0173033D01*
X0084500Y0172096D01*
X0084500Y0164371D01*
X0084500Y0166226D02*
X0074600Y0166226D01*
X0074600Y0167824D02*
X0084500Y0167824D01*
X0084500Y0169423D02*
X0074600Y0169423D01*
X0074007Y0171021D02*
X0084500Y0171021D01*
X0085024Y0172620D02*
X0072409Y0172620D01*
X0072780Y0174218D02*
X0084652Y0174218D01*
X0084500Y0174371D02*
X0085437Y0173433D01*
X0093163Y0173433D01*
X0094100Y0174371D01*
X0094100Y0182096D01*
X0093163Y0183033D01*
X0085437Y0183033D01*
X0084500Y0182096D01*
X0084500Y0174371D01*
X0084500Y0175817D02*
X0074379Y0175817D01*
X0074600Y0177415D02*
X0084500Y0177415D01*
X0084500Y0179014D02*
X0074600Y0179014D01*
X0074416Y0180612D02*
X0084500Y0180612D01*
X0084615Y0182211D02*
X0072818Y0182211D01*
X0065782Y0182211D02*
X0062818Y0182211D01*
X0055782Y0182211D02*
X0016955Y0182211D01*
X0018553Y0183810D02*
X0107700Y0183810D01*
X0107700Y0185408D02*
X0020152Y0185408D01*
X0021750Y0187007D02*
X0107700Y0187007D01*
X0107700Y0188605D02*
X0023349Y0188605D01*
X0024773Y0190029D02*
X0025504Y0190761D01*
X0025900Y0191716D01*
X0025900Y0199203D01*
X0026675Y0199978D01*
X0027281Y0201441D01*
X0027281Y0203025D01*
X0026675Y0204488D01*
X0025555Y0205608D01*
X0024092Y0206214D01*
X0022508Y0206214D01*
X0021045Y0205608D01*
X0019925Y0204488D01*
X0019319Y0203025D01*
X0019319Y0201441D01*
X0019925Y0199978D01*
X0020700Y0199203D01*
X0020700Y0193310D01*
X0014727Y0187337D01*
X0014800Y0187800D01*
X0014800Y0188033D01*
X0009500Y0188033D01*
X0009500Y0188433D01*
X0014800Y0188433D01*
X0014800Y0188666D01*
X0014665Y0189521D01*
X0014397Y0190345D01*
X0014004Y0191116D01*
X0013495Y0191816D01*
X0012883Y0192428D01*
X0012183Y0192937D01*
X0011411Y0193330D01*
X0011356Y0193348D01*
X0012302Y0193740D01*
X0013793Y0195231D01*
X0014600Y0197179D01*
X0014600Y0199288D01*
X0013793Y0201236D01*
X0012302Y0202726D01*
X0011803Y0202933D01*
X0013663Y0202933D01*
X0014600Y0203871D01*
X0014600Y0212596D01*
X0013663Y0213533D01*
X0004937Y0213533D01*
X0004000Y0212596D01*
X0004000Y0203871D01*
X0004937Y0202933D01*
X0006797Y0202933D01*
X0006298Y0202726D01*
X0004807Y0201236D01*
X0004000Y0199288D01*
X0004000Y0197179D01*
X0004807Y0195231D01*
X0006298Y0193740D01*
X0007244Y0193348D01*
X0007189Y0193330D01*
X0006417Y0192937D01*
X0005717Y0192428D01*
X0005105Y0191816D01*
X0004596Y0191116D01*
X0004203Y0190345D01*
X0003935Y0189521D01*
X0003800Y0188666D01*
X0003800Y0188433D01*
X0009100Y0188433D01*
X0009100Y0188033D01*
X0003800Y0188033D01*
X0003800Y0187800D01*
X0003935Y0186945D01*
X0004203Y0186122D01*
X0004596Y0185351D01*
X0005105Y0184650D01*
X0005717Y0184038D01*
X0006417Y0183529D01*
X0007189Y0183136D01*
X0007244Y0183118D01*
X0006298Y0182726D01*
X0004807Y0181236D01*
X0004000Y0179288D01*
X0004000Y0177179D01*
X0004807Y0175231D01*
X0006298Y0173740D01*
X0008246Y0172933D01*
X0010354Y0172933D01*
X0012302Y0173740D01*
X0013793Y0175231D01*
X0014600Y0177179D01*
X0014600Y0179288D01*
X0014433Y0179690D01*
X0024773Y0190029D01*
X0024947Y0190204D02*
X0107700Y0190204D01*
X0107700Y0191802D02*
X0025900Y0191802D01*
X0025900Y0193401D02*
X0063150Y0193401D01*
X0063508Y0193252D02*
X0065092Y0193252D01*
X0066555Y0193858D01*
X0067675Y0194978D01*
X0068071Y0195933D01*
X0084500Y0195933D01*
X0084500Y0194371D01*
X0085437Y0193433D01*
X0093163Y0193433D01*
X0094100Y0194371D01*
X0094100Y0202096D01*
X0093163Y0203033D01*
X0085437Y0203033D01*
X0084500Y0202096D01*
X0084500Y0200533D01*
X0066630Y0200533D01*
X0066555Y0200608D01*
X0066208Y0200752D01*
X0066592Y0200752D01*
X0068055Y0201358D01*
X0069175Y0202478D01*
X0069781Y0203941D01*
X0069781Y0205462D01*
X0070253Y0205933D01*
X0084500Y0205933D01*
X0084500Y0204371D01*
X0085437Y0203433D01*
X0093163Y0203433D01*
X0094100Y0204371D01*
X0094100Y0212096D01*
X0093163Y0213033D01*
X0085437Y0213033D01*
X0084500Y0212096D01*
X0084500Y0210533D01*
X0068347Y0210533D01*
X0066528Y0208714D01*
X0065008Y0208714D01*
X0063545Y0208108D01*
X0062425Y0206988D01*
X0061819Y0205525D01*
X0061819Y0203941D01*
X0062425Y0202478D01*
X0063545Y0201358D01*
X0063892Y0201214D01*
X0063508Y0201214D01*
X0062045Y0200608D01*
X0060925Y0199488D01*
X0060319Y0198025D01*
X0060319Y0196441D01*
X0060925Y0194978D01*
X0062045Y0193858D01*
X0063508Y0193252D01*
X0065450Y0193401D02*
X0107700Y0193401D01*
X0107700Y0194999D02*
X0094100Y0194999D01*
X0094100Y0196598D02*
X0107700Y0196598D01*
X0107700Y0198196D02*
X0094100Y0198196D01*
X0094100Y0199795D02*
X0107700Y0199795D01*
X0107700Y0201393D02*
X0094100Y0201393D01*
X0093204Y0202992D02*
X0107700Y0202992D01*
X0107700Y0204590D02*
X0094100Y0204590D01*
X0094100Y0206189D02*
X0107700Y0206189D01*
X0107700Y0207787D02*
X0094100Y0207787D01*
X0094100Y0209386D02*
X0107700Y0209386D01*
X0107700Y0210984D02*
X0094100Y0210984D01*
X0093613Y0212583D02*
X0107700Y0212583D01*
X0107700Y0214181D02*
X0003400Y0214181D01*
X0003400Y0212583D02*
X0004000Y0212583D01*
X0004000Y0210984D02*
X0003400Y0210984D01*
X0003400Y0209386D02*
X0004000Y0209386D01*
X0004000Y0207787D02*
X0003400Y0207787D01*
X0003400Y0206189D02*
X0004000Y0206189D01*
X0004000Y0204590D02*
X0003400Y0204590D01*
X0003400Y0202992D02*
X0004879Y0202992D01*
X0004964Y0201393D02*
X0003400Y0201393D01*
X0003400Y0199795D02*
X0004210Y0199795D01*
X0004000Y0198196D02*
X0003400Y0198196D01*
X0003400Y0196598D02*
X0004241Y0196598D01*
X0005039Y0194999D02*
X0003400Y0194999D01*
X0003400Y0193401D02*
X0007118Y0193401D01*
X0005094Y0191802D02*
X0003400Y0191802D01*
X0003400Y0190204D02*
X0004157Y0190204D01*
X0003800Y0188605D02*
X0003400Y0188605D01*
X0003400Y0187007D02*
X0003926Y0187007D01*
X0003400Y0185408D02*
X0004567Y0185408D01*
X0003400Y0183810D02*
X0006032Y0183810D01*
X0005782Y0182211D02*
X0003400Y0182211D01*
X0003400Y0180612D02*
X0004549Y0180612D01*
X0004000Y0179014D02*
X0003400Y0179014D01*
X0003400Y0177415D02*
X0004000Y0177415D01*
X0004564Y0175817D02*
X0003400Y0175817D01*
X0003400Y0174218D02*
X0005820Y0174218D01*
X0003400Y0172620D02*
X0056191Y0172620D01*
X0055820Y0174218D02*
X0012780Y0174218D01*
X0014036Y0175817D02*
X0054221Y0175817D01*
X0054000Y0177415D02*
X0014600Y0177415D01*
X0014600Y0179014D02*
X0054000Y0179014D01*
X0054184Y0180612D02*
X0015356Y0180612D01*
X0009300Y0178233D02*
X0023300Y0192233D01*
X0023300Y0202233D01*
X0020109Y0199795D02*
X0014390Y0199795D01*
X0014600Y0198196D02*
X0020700Y0198196D01*
X0020700Y0196598D02*
X0014359Y0196598D01*
X0013561Y0194999D02*
X0020700Y0194999D01*
X0020700Y0193401D02*
X0011482Y0193401D01*
X0013506Y0191802D02*
X0019192Y0191802D01*
X0017593Y0190204D02*
X0014443Y0190204D01*
X0014800Y0188605D02*
X0015995Y0188605D01*
X0025900Y0194999D02*
X0060916Y0194999D01*
X0060319Y0196598D02*
X0025900Y0196598D01*
X0025900Y0198196D02*
X0060390Y0198196D01*
X0061231Y0199795D02*
X0026491Y0199795D01*
X0027261Y0201393D02*
X0063510Y0201393D01*
X0062212Y0202992D02*
X0027281Y0202992D01*
X0026573Y0204590D02*
X0061819Y0204590D01*
X0062094Y0206189D02*
X0024154Y0206189D01*
X0022446Y0206189D02*
X0014600Y0206189D01*
X0014600Y0207787D02*
X0063224Y0207787D01*
X0067200Y0209386D02*
X0014600Y0209386D01*
X0014600Y0210984D02*
X0084500Y0210984D01*
X0084987Y0212583D02*
X0014600Y0212583D01*
X0003400Y0215780D02*
X0107700Y0215780D01*
X0085396Y0202992D02*
X0069388Y0202992D01*
X0069781Y0204590D02*
X0084500Y0204590D01*
X0084500Y0201393D02*
X0068090Y0201393D01*
X0067684Y0194999D02*
X0084500Y0194999D01*
X0093985Y0182211D02*
X0107700Y0182211D01*
X0107700Y0180612D02*
X0094100Y0180612D01*
X0094100Y0179014D02*
X0107700Y0179014D01*
X0107700Y0177415D02*
X0094100Y0177415D01*
X0094100Y0175817D02*
X0107700Y0175817D01*
X0107700Y0174218D02*
X0093948Y0174218D01*
X0093576Y0172620D02*
X0107700Y0172620D01*
X0107700Y0171021D02*
X0094100Y0171021D01*
X0094100Y0169423D02*
X0107700Y0169423D01*
X0107700Y0167824D02*
X0094100Y0167824D01*
X0094100Y0166226D02*
X0107700Y0166226D01*
X0107700Y0164627D02*
X0094100Y0164627D01*
X0067009Y0163029D02*
X0061591Y0163029D01*
X0063189Y0164627D02*
X0065411Y0164627D01*
X0057009Y0163029D02*
X0003400Y0163029D01*
X0003400Y0164627D02*
X0055411Y0164627D01*
X0054000Y0166226D02*
X0003400Y0166226D01*
X0003400Y0167824D02*
X0054000Y0167824D01*
X0054000Y0169423D02*
X0003400Y0169423D01*
X0003400Y0171021D02*
X0054593Y0171021D01*
X0019339Y0201393D02*
X0013636Y0201393D01*
X0013721Y0202992D02*
X0019319Y0202992D01*
X0020027Y0204590D02*
X0014600Y0204590D01*
D15*
X0023300Y0202233D03*
X0041300Y0208233D03*
X0065800Y0204733D03*
X0064300Y0197233D03*
X0096300Y0211233D03*
D16*
X0089300Y0208233D02*
X0069300Y0208233D01*
X0065800Y0204733D01*
X0065300Y0198233D02*
X0064300Y0197233D01*
X0065300Y0198233D02*
X0089300Y0198233D01*
M02*
