G75*
%MOIN*%
%OFA0B0*%
%FSLAX25Y25*%
%IPPOS*%
%LPD*%
%AMOC8*
5,1,8,0,0,1.08239X$1,22.5*
%
%ADD10C,0.00800*%
%ADD11C,0.00600*%
%ADD12C,0.00500*%
%ADD13C,0.00200*%
D10*
X0104700Y0166133D02*
X0107502Y0166133D01*
X0104700Y0166133D02*
X0104700Y0170337D01*
X0104700Y0176133D02*
X0104700Y0180337D01*
X0104700Y0178235D02*
X0107502Y0178235D01*
X0107502Y0180337D02*
X0107502Y0176133D01*
X0094804Y0186133D02*
X0094804Y0190337D01*
X0092002Y0190337D02*
X0094804Y0186133D01*
X0092002Y0186133D02*
X0092002Y0190337D01*
X0090200Y0188936D02*
X0088799Y0190337D01*
X0087398Y0188936D01*
X0087398Y0186133D01*
X0085596Y0186834D02*
X0084896Y0186133D01*
X0083495Y0186133D01*
X0082794Y0186834D01*
X0082794Y0189636D01*
X0083495Y0190337D01*
X0084896Y0190337D01*
X0085596Y0189636D01*
X0087398Y0188235D02*
X0090200Y0188235D01*
X0090200Y0188936D02*
X0090200Y0186133D01*
X0072502Y0195133D02*
X0069700Y0195133D01*
X0069700Y0199337D01*
X0069700Y0203133D02*
X0069700Y0207337D01*
X0069700Y0205235D02*
X0072502Y0205235D01*
X0072502Y0207337D02*
X0072502Y0203133D01*
X0049280Y0212576D02*
X0037288Y0212576D01*
X0037288Y0192891D01*
X0034320Y0192891D01*
X0037288Y0192891D02*
X0049280Y0192891D01*
X0029210Y0189636D02*
X0028510Y0190337D01*
X0026408Y0190337D01*
X0026408Y0186133D01*
X0028510Y0186133D01*
X0029210Y0186834D01*
X0029210Y0189636D01*
X0024606Y0190337D02*
X0024606Y0186133D01*
X0021804Y0190337D01*
X0021804Y0186133D01*
X0020002Y0186834D02*
X0020002Y0188235D01*
X0018601Y0188235D01*
X0017200Y0186834D02*
X0017901Y0186133D01*
X0019302Y0186133D01*
X0020002Y0186834D01*
X0017200Y0186834D02*
X0017200Y0189636D01*
X0017901Y0190337D01*
X0019302Y0190337D01*
X0020002Y0189636D01*
X0014300Y0190733D02*
X0014300Y0185733D01*
X0011800Y0183233D01*
X0014300Y0180733D01*
X0014300Y0175733D01*
X0011800Y0173233D01*
X0006800Y0173233D01*
X0004300Y0175733D01*
X0004300Y0180733D01*
X0006800Y0183233D01*
X0004300Y0185733D01*
X0004300Y0190733D01*
X0006800Y0193233D01*
X0004300Y0195733D01*
X0004300Y0200733D01*
X0006800Y0203233D01*
X0004300Y0205733D01*
X0004300Y0210733D01*
X0006800Y0213233D01*
X0011800Y0213233D01*
X0014300Y0210733D01*
X0014300Y0205733D01*
X0011800Y0203233D01*
X0014300Y0200733D01*
X0014300Y0195733D01*
X0011800Y0193233D01*
X0014300Y0190733D01*
X0017200Y0196133D02*
X0017200Y0200337D01*
X0019302Y0200337D01*
X0020002Y0199636D01*
X0020002Y0198235D01*
X0019302Y0197535D01*
X0017200Y0197535D01*
X0018601Y0197535D02*
X0020002Y0196133D01*
X0021804Y0196133D02*
X0024606Y0200337D01*
X0021804Y0200337D02*
X0024606Y0196133D01*
X0024606Y0206133D02*
X0021804Y0210337D01*
X0020002Y0210337D02*
X0017200Y0210337D01*
X0018601Y0210337D02*
X0018601Y0206133D01*
X0021804Y0206133D02*
X0024606Y0210337D01*
X0034320Y0212576D02*
X0037288Y0212576D01*
X0104700Y0210337D02*
X0104700Y0206133D01*
X0104700Y0208235D02*
X0107502Y0208235D01*
X0107502Y0210337D02*
X0107502Y0206133D01*
X0104700Y0200337D02*
X0104700Y0196133D01*
X0107502Y0196133D01*
X0029210Y0179636D02*
X0029210Y0178936D01*
X0028510Y0178235D01*
X0029210Y0177535D01*
X0029210Y0176834D01*
X0028510Y0176133D01*
X0027108Y0176133D01*
X0026408Y0176834D01*
X0024606Y0177535D02*
X0024606Y0180337D01*
X0026408Y0179636D02*
X0027108Y0180337D01*
X0028510Y0180337D01*
X0029210Y0179636D01*
X0028510Y0178235D02*
X0027809Y0178235D01*
X0024606Y0177535D02*
X0023205Y0176133D01*
X0021804Y0177535D01*
X0021804Y0180337D01*
X0020002Y0179636D02*
X0020002Y0178936D01*
X0019302Y0178235D01*
X0020002Y0177535D01*
X0020002Y0176834D01*
X0019302Y0176133D01*
X0017901Y0176133D01*
X0017200Y0176834D01*
X0018601Y0178235D02*
X0019302Y0178235D01*
X0020002Y0179636D02*
X0019302Y0180337D01*
X0017901Y0180337D01*
X0017200Y0179636D01*
D11*
X0054300Y0180733D02*
X0054300Y0175733D01*
X0056800Y0173233D01*
X0071800Y0173233D01*
X0074300Y0170733D01*
X0074300Y0165733D01*
X0071800Y0163233D01*
X0056800Y0163233D01*
X0054300Y0165733D01*
X0054300Y0170733D01*
X0056800Y0173233D01*
X0071800Y0173233D02*
X0074300Y0175733D01*
X0074300Y0180733D01*
X0071800Y0183233D01*
X0056800Y0183233D01*
X0054300Y0180733D01*
X0054254Y0213983D02*
X0055255Y0213983D01*
X0054755Y0213983D02*
X0054755Y0215985D01*
X0054254Y0215985D01*
X0054755Y0216986D02*
X0054755Y0217486D01*
X0056464Y0215985D02*
X0057465Y0213983D01*
X0058466Y0215985D01*
X0059779Y0215485D02*
X0060279Y0215985D01*
X0061280Y0215985D01*
X0061781Y0215485D01*
X0061781Y0214984D01*
X0059779Y0214984D01*
X0059779Y0214484D02*
X0059779Y0215485D01*
X0059779Y0214484D02*
X0060279Y0213983D01*
X0061280Y0213983D01*
X0063094Y0213983D02*
X0063094Y0215985D01*
X0064095Y0215985D02*
X0064595Y0215985D01*
X0064095Y0215985D02*
X0063094Y0214984D01*
X0052941Y0214984D02*
X0050939Y0214984D01*
X0050939Y0214484D02*
X0050939Y0215485D01*
X0051440Y0215985D01*
X0052441Y0215985D01*
X0052941Y0215485D01*
X0052941Y0214984D01*
X0052441Y0213983D02*
X0051440Y0213983D01*
X0050939Y0214484D01*
X0049626Y0213983D02*
X0048125Y0213983D01*
X0047625Y0214484D01*
X0047625Y0215485D01*
X0048125Y0215985D01*
X0049626Y0215985D01*
X0046312Y0215985D02*
X0044810Y0215985D01*
X0044310Y0215485D01*
X0044810Y0214984D01*
X0045811Y0214984D01*
X0046312Y0214484D01*
X0045811Y0213983D01*
X0044310Y0213983D01*
X0042997Y0213983D02*
X0042997Y0215485D01*
X0042496Y0215985D01*
X0040995Y0215985D01*
X0040995Y0213983D01*
X0039682Y0213983D02*
X0038181Y0213983D01*
X0037680Y0214484D01*
X0038181Y0214984D01*
X0039682Y0214984D01*
X0039682Y0215485D02*
X0039682Y0213983D01*
X0039682Y0215485D02*
X0039181Y0215985D01*
X0038181Y0215985D01*
X0036419Y0215985D02*
X0035919Y0215985D01*
X0034918Y0214984D01*
X0034918Y0213983D02*
X0034918Y0215985D01*
X0033605Y0216986D02*
X0031603Y0216986D01*
X0032604Y0216986D02*
X0032604Y0213983D01*
X0026975Y0213983D02*
X0026975Y0216986D01*
X0024973Y0216986D02*
X0026975Y0213983D01*
X0024973Y0213983D02*
X0024973Y0216986D01*
X0023660Y0215985D02*
X0023660Y0213983D01*
X0023660Y0215485D02*
X0021659Y0215485D01*
X0021659Y0215985D02*
X0021659Y0213983D01*
X0020345Y0214484D02*
X0019845Y0213983D01*
X0018844Y0213983D01*
X0018344Y0214484D01*
X0018344Y0216485D01*
X0018844Y0216986D01*
X0019845Y0216986D01*
X0020345Y0216485D01*
X0021659Y0215985D02*
X0022659Y0216986D01*
X0023660Y0215985D01*
D12*
X0076505Y0214139D02*
X0099143Y0214139D01*
X0099143Y0192485D01*
X0076505Y0192485D01*
X0076505Y0214139D01*
X0099143Y0214139D02*
X0102095Y0214139D01*
X0102095Y0192485D01*
X0099143Y0192485D01*
X0078537Y0186984D02*
X0078537Y0185733D01*
X0078537Y0186984D02*
X0078120Y0187401D01*
X0076869Y0187401D01*
X0076869Y0185733D01*
X0075775Y0186150D02*
X0075775Y0186984D01*
X0075358Y0187401D01*
X0074524Y0187401D01*
X0074107Y0186984D01*
X0074107Y0186150D01*
X0074524Y0185733D01*
X0075358Y0185733D01*
X0075775Y0186150D01*
X0076505Y0184139D02*
X0099143Y0184139D01*
X0099143Y0162485D01*
X0076505Y0162485D01*
X0076505Y0184139D01*
X0073099Y0185733D02*
X0072265Y0185733D01*
X0072682Y0185733D02*
X0072682Y0187401D01*
X0072265Y0187401D01*
X0072682Y0188235D02*
X0072682Y0188652D01*
X0071258Y0187401D02*
X0070424Y0187401D01*
X0070841Y0187818D02*
X0070841Y0186150D01*
X0071258Y0185733D01*
X0069329Y0185733D02*
X0068078Y0185733D01*
X0067661Y0186150D01*
X0068078Y0186567D01*
X0069329Y0186567D01*
X0069329Y0186984D02*
X0069329Y0185733D01*
X0069329Y0186984D02*
X0068912Y0187401D01*
X0068078Y0187401D01*
X0066567Y0186984D02*
X0066150Y0187401D01*
X0064899Y0187401D01*
X0064899Y0185733D01*
X0063891Y0185733D02*
X0063057Y0185733D01*
X0063474Y0185733D02*
X0063474Y0187401D01*
X0063057Y0187401D01*
X0063474Y0188235D02*
X0063474Y0188652D01*
X0061963Y0186984D02*
X0061546Y0187401D01*
X0061129Y0186984D01*
X0061129Y0185733D01*
X0060295Y0185733D02*
X0060295Y0187401D01*
X0060712Y0187401D01*
X0061129Y0186984D01*
X0061963Y0186984D02*
X0061963Y0185733D01*
X0059244Y0187401D02*
X0058827Y0187401D01*
X0057993Y0186567D01*
X0057993Y0185733D02*
X0057993Y0187401D01*
X0056899Y0186984D02*
X0056899Y0186567D01*
X0055231Y0186567D01*
X0055231Y0186150D02*
X0055231Y0186984D01*
X0055648Y0187401D01*
X0056482Y0187401D01*
X0056899Y0186984D01*
X0056482Y0185733D02*
X0055648Y0185733D01*
X0055231Y0186150D01*
X0053302Y0185733D02*
X0053302Y0188235D01*
X0052468Y0188235D02*
X0054136Y0188235D01*
X0066567Y0186984D02*
X0066567Y0185733D01*
X0099143Y0184139D02*
X0102095Y0184139D01*
X0102095Y0162485D01*
X0099143Y0162485D01*
D13*
X0013249Y0160083D02*
X0012482Y0160083D01*
X0012098Y0160467D01*
X0012098Y0162002D01*
X0012482Y0162385D01*
X0013249Y0162385D01*
X0013633Y0162002D01*
X0014400Y0161618D02*
X0015167Y0162385D01*
X0015167Y0160083D01*
X0014400Y0160083D02*
X0015935Y0160083D01*
X0013633Y0160467D02*
X0013249Y0160083D01*
X0040098Y0160083D02*
X0040098Y0162385D01*
X0041249Y0162385D01*
X0041633Y0162002D01*
X0041633Y0161234D01*
X0041249Y0160851D01*
X0040098Y0160851D01*
X0040865Y0160851D02*
X0041633Y0160083D01*
X0042400Y0160083D02*
X0043935Y0161618D01*
X0043935Y0162002D01*
X0043551Y0162385D01*
X0042784Y0162385D01*
X0042400Y0162002D01*
X0042400Y0160083D02*
X0043935Y0160083D01*
X0043935Y0170083D02*
X0042400Y0170083D01*
X0043167Y0170083D02*
X0043167Y0172385D01*
X0042400Y0171618D01*
X0041633Y0172002D02*
X0041633Y0171234D01*
X0041249Y0170851D01*
X0040098Y0170851D01*
X0040865Y0170851D02*
X0041633Y0170083D01*
X0040098Y0170083D02*
X0040098Y0172385D01*
X0041249Y0172385D01*
X0041633Y0172002D01*
X0041249Y0180083D02*
X0041633Y0180467D01*
X0041249Y0180083D02*
X0040482Y0180083D01*
X0040098Y0180467D01*
X0040098Y0182002D01*
X0040482Y0182385D01*
X0041249Y0182385D01*
X0041633Y0182002D01*
X0042400Y0182002D02*
X0042784Y0182385D01*
X0043551Y0182385D01*
X0043935Y0182002D01*
X0043935Y0181618D01*
X0042400Y0180083D01*
X0043935Y0180083D01*
M02*
